PathFileType	4	(X/Y/Z)	Kaydara																																																																																																																									
DataRate	CameraRate	NumFrames	NumMarkers	Units	OrigDataRate	OrigDataStartFrame	OrigNumFrames																																																																																																																					
30	30	7	41	mm	30	170	192																																																																																																																					
Frame#	Time	PAIB_LFHD			PAIB_RFHD			PAIB_LBHD			PAIB_RBHD			PAIB_LFTShould			PAIB_RFTShould			PAIB_LRRShould			PAIB_RRRShould			PAIB_T10			PAIB_STRN			PAIB_TRUN			PAIB_LSHO			PAIB_LUPA			PAIB_LELB			PAIB_LFRM			PAIB_LWRA			PAIB_LWRB			PAIB_LFIN			PAIB_RSHO			PAIB_RUPA			PAIB_RELB			PAIB_RFRM			PAIB_RWRA			PAIB_RWRB			PAIB_RFIN			PAIB_LFWT			PAIB_RFWT			PAIB_LBWT			PAIB_RBWT			PAIB_LTHI			PAIB_LKNE			PAIB_LSHN			PAIB_LANK			PAIB_LHEE			PAIB_LTOE			PAIB_RTHI			PAIB_RKNE			PAIB_RSHN			PAIB_RANK			PAIB_RHEE			PAIB_RTOE		
		X1	Y1	Z1	X2	Y2	Z2	X3	Y3	Z3	X4	Y4	Z4	X5	Y5	Z5	X6	Y6	Z6	X7	Y7	Z7	X8	Y8	Z8	X9	Y9	Z9	X10	Y10	Z10	X11	Y11	Z11	X12	Y12	Z12	X13	Y13	Z13	X14	Y14	Z14	X15	Y15	Z15	X16	Y16	Z16	X17	Y17	Z17	X18	Y18	Z18	X19	Y19	Z19	X20	Y20	Z20	X21	Y21	Z21	X22	Y22	Z22	X23	Y23	Z23	X24	Y24	Z24	X25	Y25	Z25	X26	Y26	Z26	X27	Y27	Z27	X28	Y28	Z28	X29	Y29	Z29	X30	Y30	Z30	X31	Y31	Z31	X32	Y32	Z32	X33	Y33	Z33	X34	Y34	Z34	X35	Y35	Z35	X36	Y36	Z36	X37	Y37	Z37	X38	Y38	Z38	X39	Y39	Z39	X40	Y40	Z40	X41	Y41	Z41
																																																																																																																												
169	5.63	272.18897	1644.96231	1780.06256	88.12754	1643.73093	1769.24225	287.4465	1610.7901	1656.84906	84.31255	1621.64413	1656.05515	246.5177	1379.03824	1787.78793	124.71695	1371.57135	1781.82587	259.03671	1437.4086	1637.77374	104.583	1431.81839	1644.82803	183.34116	1271.98257	1566.72363	194.43016	1312.64618	1827.18277	196.40686	1211.76743	1853.09235	376.47034	1388.05389	1712.59613	436.81816	1163.91418	1720.48111	458.90507	1079.48929	1687.37366	481.07368	972.10777	1745.03998	425.72025	871.19286	1850.01114	465.2401	843.67599	1785.23819	477.30858	817.96951	1851.98456	-3.75159	1369.37729	1721.66428	-63.0788	1195.1963	1674.51202	-81.63962	1077.26181	1663.65891	-98.631	939.79263	1691.44958	-39.8237	831.68282	1786.58203	-108.38076	820.5175	1738.27652	-99.15196	781.38748	1800.73578	304.50443	916.16089	1811.28479	72.17074	933.19496	1830.51163	224.62301	954.70337	1595.2948	80.35357	963.11943	1609.35593	270.331	671.0228	1627.90039	337.91779	449.26498	1731.49902	300.88583	298.90284	1597.43973	295.66681	252.57502	1394.72351	241.096	289.83267	1360.74905	267.70519	79.28056	1429.17282	31.22359	658.3847	1696.0321	52.78219	450.28763	1847.63199	121.84263	267.90136	1878.32382	92.48912	69.78323	1806.13098	150.32849	69.21767	1748.10654	126.04422	37.88643	1976.12579
170	5.663	272.46191	1651.24191	1818.46161	88.25971	1649.89502	1808.8942	286.86844	1617.46948	1695.159	83.41804	1628.10623	1695.80444	248.6796	1384.90234	1823.94592	126.72841	1377.98859	1821.44882	256.62704	1442.85843	1674.31442	102.36804	1438.59192	1685.23315	177.84254	1278.61534	1604.08432	197.2225	1318.89038	1864.38873	198.91209	1218.12439	1890.77362	376.72031	1392.69531	1744.62234	434.8774	1167.20161	1746.01715	453.64307	1083.14774	1710.48111	475.40668	973.60626	1763.79288	418.47549	867.96234	1863.39661	458.38451	843.64342	1797.96356	468.78994	813.90411	1863.69293	-2.80448	1376.44424	1766.51474	-66.1902	1201.8544	1729.3013	-86.8814	1083.93051	1723.19824	-101.51525	947.74178	1759.25476	-36.23602	845.83397	1856.89713	-107.46131	831.29425	1813.17917	-94.64171	796.67953	1877.76489	300.79269	925.36697	1850.56	67.68328	938.19809	1866.84738	224.18562	961.05865	1634.77722	80.07245	969.6804	1645.92316	269.62088	674.79431	1684.09409	342.7536	459.86835	1812.28165	303.19433	308.00249	1683.63525	290.95778	259.52383	1480.9697	233.73859	293.46157	1449.25552	273.06837	88.65351	1524.33548	30.99289	665.11917	1719.24957	51.68326	448.76247	1857.8685	122.66595	266.17599	1883.64029	93.14886	69.20943	1808.00781	150.83103	70.33334	1748.90976	126.77375	37.41004	1976.55167
171	5.697	273.35011	1656.39313	1856.21582	89.03559	1654.9794	1848.06946	286.77601	1622.93823	1732.49924	83.1848	1633.64502	1734.88373	249.97128	1390.08957	1859.41864	128.28647	1384.34448	1859.84787	254.90221	1447.72736	1710.50461	101.15877	1445.07553	1724.22119	173.38676	1284.64828	1640.9758	198.75551	1324.70642	1901.02875	199.69645	1223.84834	1927.26959	377.05925	1396.91818	1776.51779	432.90195	1170.62462	1770.00839	448.02673	1086.93657	1731.38962	469.25209	974.95361	1779.78714	412.48165	866.20659	1876.41342	450.7803	844.0921	1809.17435	461.69464	811.21834	1873.38593	-1.56757	1384.2868	1808.84598	-68.18081	1209.99229	1782.97745	-90.76698	1091.98784	1783.0603	-103.33671	958.1601	1828.19443	-31.59551	862.30682	1927.31888	-105.8298	845.61882	1889.67529	-88.31779	814.94301	1955.40604	297.23251	933.0571	1888.74542	63.42516	941.9368	1902.51297	225.27357	966.44485	1672.64648	80.89828	975.32692	1681.8924	275.15892	678.32092	1736.2175	346.37833	474.03862	1888.34976	304.65658	312.92524	1772.46338	286.98378	249.72202	1574.0535	227.8557	279.43802	1540.99945	273.33248	84.50538	1634.80576	31.51356	671.36024	1741.2854	52.07514	448.4322	1868.80295	123.09835	264.93402	1887.26242	93.63318	69.39598	1809.12155	150.68568	71.09771	1748.87833	127.1796	37.21102	1976.78879
172	5.73	274.87833	1659.03854	1893.53012	90.45031	1658.15231	1886.54175	287.14487	1626.15891	1769.46686	83.40077	1637.5386	1773.39478	250.92899	1393.28934	1894.72794	129.35575	1388.87711	1897.5412	253.7896	1450.84198	1746.55426	100.40697	1449.73358	1762.11334	169.62772	1288.86597	1677.18552	200.02922	1328.32062	1937.1286	200.30777	1227.39563	1963.14758	377.18231	1399.2952	1809.43344	430.23666	1172.66014	1794.19342	442.5964	1089.93874	1752.11151	463.14693	975.61554	1795.34424	408.13305	864.375	1890.37918	442.85702	844.05869	1820.8696	456.34048	808.49579	1882.95639	-0.38202	1391.16211	1849.47357	-69.70236	1217.65953	1833.17444	-93.88269	1099.91127	1840.10025	-104.14704	969.19449	1895.27496	-26.67598	880.53535	1997.08847	-103.21987	861.59279	1965.23346	-81.42916	835.59326	2031.92871	294.68567	937.77679	1926.03333	60.43811	942.83195	1937.66968	226.83691	967.91275	1709.14474	82.06175	978.13057	1717.12372	282.99128	678.90411	1784.96857	347.97157	487.57774	1958.02063	304.7016	312.02496	1859.97925	284.61414	225.75977	1672.51984	224.52261	251.44991	1634.79645	271.78955	73.82674	1757.69821	32.72383	677.29454	1762.33734	50.67896	447.10506	1875.25558	121.72115	263.76593	1891.46606	94.41897	69.83808	1808.9859	151.54613	72.05691	1749.49158	127.27158	37.16378	1977.15042
173	5.763	276.66895	1658.95645	1930.82642	92.06222	1659.02985	1924.63974	288.14068	1626.46988	1806.46225	84.44808	1638.90366	1811.42075	252.13827	1393.30124	1930.19333	130.7162	1390.28641	1935.06622	252.94653	1451.38016	1782.6738	99.992	1451.70242	1799.98169	166.24935	1290.33066	1713.98331	201.49008	1328.78586	1973.18924	201.41521	1227.84912	1999.02725	377.20055	1398.88199	1843.23975	427.41764	1172.19635	1819.82681	437.75002	1090.89485	1774.45862	457.90386	974.68498	1812.95639	404.61597	860.86021	1906.0704	436.32721	842.37038	1834.39011	451.54472	804.48242	1894.89929	0.9378	1395.12802	1889.49234	-70.96848	1222.84668	1880.66391	-96.82975	1105.87242	1894.20013	-104.1006	978.95714	1959.86725	-22.19733	899.52072	2065.83206	-99.61893	877.49603	2037.93335	-75.35383	857.0491	2105.91568	292.96267	939.98947	1963.15109	58.40165	941.27693	1971.56738	228.79272	967.49153	1745.51468	83.8579	977.94159	1751.46133	291.18982	679.69444	1831.43158	346.52042	498.67695	2020.54108	304.13149	307.53939	1948.00903	284.09609	190.41594	1777.5563	224.87249	208.22716	1735.42343	271.15839	60.41988	1890.48492	34.73719	681.71143	1783.9859	49.1676	446.3533	1882.20963	121.32297	262.80178	1895.94604	94.97084	70.64671	1810.11246	152.0759	73.42342	1750.97824	127.14523	36.75373	1977.15958
174	5.797	278.6511	1656.43616	1968.01575	94.05766	1657.52838	1962.3938	289.52194	1624.06357	1843.4906	85.73998	1637.50717	1849.03763	253.66066	1390.48111	1965.86472	132.1692	1388.48862	1972.50214	252.54118	1449.28421	1818.68164	99.79208	1450.57098	1837.99667	163.69448	1289.19205	1750.59616	203.20015	1326.36993	2009.35944	202.7994	1225.25864	2034.82239	377.59003	1395.68848	1876.8071	425.23537	1169.15642	1847.13333	433.69865	1089.14642	1799.3718	453.79398	971.53046	1833.66333	401.67969	855.03685	1924.02115	431.36593	838.57986	1851.22269	448.06747	798.66119	1909.77982	2.4225	1395.38498	1928.96637	-71.74186	1224.65462	1926.73904	-99.99833	1109.23698	1946.62445	-103.52583	986.41777	2021.38474	-18.00807	917.75131	2132.26959	-94.91588	891.31737	2107.28363	-70.17766	877.36732	2176.13312	291.67744	939.6637	2000.84579	56.92749	938.4127	2006.50879	231.94262	966.46347	1782.29599	87.11458	976.26572	1786.61606	296.02543	680.30174	1874.84512	342.2636	504.83017	2073.37006	302.10672	300.60579	2032.98325	285.31979	150.73972	1891.54922	225.15079	157.35967	1847.11853	277.10348	50.16346	2029.64371	36.67456	684.81728	1806.87881	49.6585	444.95922	1894.27612	121.31412	261.35996	1901.91162	95.95906	71.36724	1810.91049	153.39547	75.16025	1751.96945	126.82992	36.67875	1977.30652
175	5.83	280.8407	1652.21603	2005.36484	96.18013	1654.00696	2000.08606	291.10285	1619.7287	1880.67108	87.50417	1634.03152	1886.74652	255.31641	1385.79849	2001.91696	133.86961	1384.57977	2009.95102	252.84559	1445.07751	1854.86313	100.26597	1447.07779	1875.73273	162.5452	1286.25504	1785.55847	204.9143	1322.04193	2045.79178	204.1091	1220.94238	2071.18744	378.28526	1390.38864	1910.83038	423.61462	1164.06898	1876.53519	430.62237	1084.97925	1826.76071	450.92628	966.61072	1857.36313	400.04246	847.46788	1945.05493	428.70049	833.30933	1871.31241	445.90321	791.46782	1928.42499	4.25364	1392.30774	1967.88803	-71.79962	1223.41942	1971.59149	-101.64539	1109.35097	1996.91483	-102.26034	991.76193	2080.0708	-13.7653	933.79822	2195.01755	-90.12064	903.41835	2172.78488	-65.07938	896.5937	2242.57004	291.44827	936.04477	2038.87955	56.88136	933.33359	2041.54556	235.71848	963.94974	1819.71863	91.0041	973.74771	1822.98752	296.24414	678.60977	1914.89273	336.53587	504.37366	2114.35257	302.33877	294.29428	2112.47238	287.11117	115.26313	2011.28204	224.88171	110.03882	1969.47861	293.00222	49.4832	2169.1983	38.22309	686.47835	1832.03171	50.25796	443.16097	1906.10001	121.4519	259.38639	1909.10309	97.11679	72.44447	1811.99905	155.90853	77.08586	1753.52615	126.49649	36.52218	1977.60361
